{"accessors":[{"bufferView":0,"componentType":5125,"count":420,"max":[263.0],"min":[0.0],"type":"SCALAR"},{"bufferView":1,"componentType":5126,"count":264,"max":[0.7676675319671631,0.03937007859349251,2.4408957958221437],"min":[0.610285222530365,0.0,0.31500959396362307],"type":"VEC3"},{"bufferView":2,"componentType":5126,"count":264,"max":[0.9993780255317688,0.0,0.9993780255317688],"min":[-0.9993780255317688,-1.0,-0.9993780255317688],"type":"VEC3"},{"bufferView":3,"componentType":5125,"count":12,"max":[7.0],"min":[0.0],"type":"SCALAR"},{"bufferView":4,"componentType":5126,"count":8,"max":[1.3779528141021729,1.839423656463623,11.116561889648438],"min":[0.0,0.07874015718698502,0.0],"type":"VEC3"},{"bufferView":5,"componentType":5126,"count":8,"max":[0.0,1.0,0.0],"min":[0.0,0.4472135901451111,-0.8944271802902222],"type":"VEC3"},{"bufferView":6,"componentType":5125,"count":216,"max":[81.0],"min":[0.0],"type":"SCALAR"},{"bufferView":7,"componentType":5126,"count":82,"max":[1.3779528141021729,1.839423656463623,11.151776313781739],"min":[0.0,0.03937007859349251,0.0],"type":"VEC3"},{"bufferView":8,"componentType":5126,"count":82,"max":[1.0,0.8944271802902222,0.8944271802902222],"min":[-1.0,-1.0,-1.0],"type":"VEC3"},{"bufferView":9,"componentType":5125,"count":420,"max":[263.0],"min":[0.0],"type":"SCALAR"},{"bufferView":10,"componentType":5126,"count":264,"max":[0.7676675319671631,0.03937007859349251,2.4408957958221437],"min":[0.610285222530365,0.0,0.31500959396362307],"type":"VEC3"},{"bufferView":11,"componentType":5126,"count":264,"max":[0.9993780255317688,0.0,0.9993780255317688],"min":[-0.9993780255317688,-1.0,-0.9993780255317688],"type":"VEC3"},{"bufferView":12,"componentType":5125,"count":12,"max":[7.0],"min":[0.0],"type":"SCALAR"},{"bufferView":13,"componentType":5126,"count":8,"max":[1.3779528141021729,1.839423656463623,11.116561889648438],"min":[0.0,0.07874015718698502,0.0],"type":"VEC3"},{"bufferView":14,"componentType":5126,"count":8,"max":[0.0,1.0,0.0],"min":[0.0,0.4472135901451111,-0.8944271802902222],"type":"VEC3"},{"bufferView":15,"componentType":5125,"count":216,"max":[81.0],"min":[0.0],"type":"SCALAR"},{"bufferView":16,"componentType":5126,"count":82,"max":[1.3779528141021729,1.839423656463623,11.151776313781739],"min":[0.0,0.03937007859349251,0.0],"type":"VEC3"},{"bufferView":17,"componentType":5126,"count":82,"max":[1.0,0.8944271802902222,0.8944271802902222],"min":[-1.0,-1.0,-1.0],"type":"VEC3"},{"bufferView":18,"componentType":5125,"count":420,"max":[263.0],"min":[0.0],"type":"SCALAR"},{"bufferView":19,"componentType":5126,"count":264,"max":[0.7676675319671631,0.03937007859349251,2.4408957958221437],"min":[0.610285222530365,0.0,0.31500959396362307],"type":"VEC3"},{"bufferView":20,"componentType":5126,"count":264,"max":[0.9993780255317688,1.0,0.9993780255317688],"min":[-0.9993780255317688,-0.0,-0.9993780255317688],"type":"VEC3"},{"bufferView":21,"componentType":5125,"count":12,"max":[7.0],"min":[0.0],"type":"SCALAR"},{"bufferView":22,"componentType":5126,"count":8,"max":[1.3779528141021729,1.839423656463623,11.116561889648438],"min":[0.0,0.07874015718698502,0.0],"type":"VEC3"},{"bufferView":23,"componentType":5126,"count":8,"max":[-0.0,-0.4472135901451111,0.8944271802902222],"min":[-0.0,-1.0,-0.0],"type":"VEC3"},{"bufferView":24,"componentType":5125,"count":216,"max":[81.0],"min":[0.0],"type":"SCALAR"},{"bufferView":25,"componentType":5126,"count":82,"max":[1.3779528141021729,1.839423656463623,11.151776313781739],"min":[0.0,0.03937007859349251,0.0],"type":"VEC3"},{"bufferView":26,"componentType":5126,"count":82,"max":[1.0,1.0,1.0],"min":[-1.0,-0.8944271802902222,-0.8944271802902222],"type":"VEC3"},{"bufferView":27,"componentType":5125,"count":420,"max":[263.0],"min":[0.0],"type":"SCALAR"},{"bufferView":28,"componentType":5126,"count":264,"max":[0.7676675319671631,0.03937007859349251,2.4408957958221437],"min":[0.610285222530365,0.0,0.31500959396362307],"type":"VEC3"},{"bufferView":29,"componentType":5126,"count":264,"max":[0.9993780255317688,1.0,0.9993780255317688],"min":[-0.9993780255317688,-0.0,-0.9993780255317688],"type":"VEC3"},{"bufferView":30,"componentType":5125,"count":12,"max":[7.0],"min":[0.0],"type":"SCALAR"},{"bufferView":31,"componentType":5126,"count":8,"max":[1.3779528141021729,1.839423656463623,11.116561889648438],"min":[0.0,0.07874015718698502,0.0],"type":"VEC3"},{"bufferView":32,"componentType":5126,"count":8,"max":[-0.0,-0.4472135901451111,0.8944271802902222],"min":[-0.0,-1.0,-0.0],"type":"VEC3"},{"bufferView":33,"componentType":5125,"count":216,"max":[81.0],"min":[0.0],"type":"SCALAR"},{"bufferView":34,"componentType":5126,"count":82,"max":[1.3779528141021729,1.839423656463623,11.151776313781739],"min":[0.0,0.03937007859349251,0.0],"type":"VEC3"},{"bufferView":35,"componentType":5126,"count":82,"max":[1.0,1.0,1.0],"min":[-1.0,-0.8944271802902222,-0.8944271802902222],"type":"VEC3"},{"bufferView":36,"componentType":5125,"count":420,"max":[263.0],"min":[0.0],"type":"SCALAR"},{"bufferView":37,"componentType":5126,"count":264,"max":[0.7676675319671631,0.03937007859349251,2.4408957958221437],"min":[0.610285222530365,0.0,0.31500959396362307],"type":"VEC3"},{"bufferView":38,"componentType":5126,"count":264,"max":[0.9993780255317688,0.0,0.9993780255317688],"min":[-0.9993780255317688,-1.0,-0.9993780255317688],"type":"VEC3"},{"bufferView":39,"componentType":5125,"count":12,"max":[7.0],"min":[0.0],"type":"SCALAR"},{"bufferView":40,"componentType":5126,"count":8,"max":[1.3779528141021729,1.839423656463623,11.116561889648438],"min":[-5.3290705182007517e-15,0.07874015718698502,0.0],"type":"VEC3"},{"bufferView":41,"componentType":5126,"count":8,"max":[0.0,1.0,0.0],"min":[0.0,0.4472135901451111,-0.8944271802902222],"type":"VEC3"},{"bufferView":42,"componentType":5125,"count":216,"max":[81.0],"min":[0.0],"type":"SCALAR"},{"bufferView":43,"componentType":5126,"count":82,"max":[1.3779528141021729,1.839423656463623,11.151776313781739],"min":[-5.3290705182007517e-15,0.03937007859349251,0.0],"type":"VEC3"},{"bufferView":44,"componentType":5126,"count":82,"max":[1.0,0.8944271802902222,0.8944271802902222],"min":[-1.0,-1.0,-1.0],"type":"VEC3"},{"bufferView":45,"componentType":5125,"count":420,"max":[263.0],"min":[0.0],"type":"SCALAR"},{"bufferView":46,"componentType":5126,"count":264,"max":[0.7676675319671631,0.03937007859349251,2.4408957958221437],"min":[0.610285222530365,0.0,0.31500959396362307],"type":"VEC3"},{"bufferView":47,"componentType":5126,"count":264,"max":[0.9993780255317688,0.0,0.9993780255317688],"min":[-0.9993780255317688,-1.0,-0.9993780255317688],"type":"VEC3"},{"bufferView":48,"componentType":5125,"count":12,"max":[7.0],"min":[0.0],"type":"SCALAR"},{"bufferView":49,"componentType":5126,"count":8,"max":[1.3779528141021729,1.839423656463623,11.116561889648438],"min":[0.0,0.07874015718698502,0.0],"type":"VEC3"},{"bufferView":50,"componentType":5126,"count":8,"max":[0.0,1.0,0.0],"min":[0.0,0.4472135901451111,-0.8944271802902222],"type":"VEC3"},{"bufferView":51,"componentType":5125,"count":216,"max":[81.0],"min":[0.0],"type":"SCALAR"},{"bufferView":52,"componentType":5126,"count":82,"max":[1.3779528141021729,1.839423656463623,11.151776313781739],"min":[0.0,0.03937007859349251,0.0],"type":"VEC3"},{"bufferView":53,"componentType":5126,"count":82,"max":[1.0,0.8944271802902222,0.8944271802902222],"min":[-1.0,-1.0,-1.0],"type":"VEC3"},{"bufferView":54,"componentType":5125,"count":12,"max":[7.0],"min":[0.0],"type":"SCALAR"},{"bufferView":55,"componentType":5126,"count":8,"max":[1.3779528141021729,1.4566929340362549,10.236220359802246],"min":[0.0,0.07874015718698502,0.0],"type":"VEC3"},{"bufferView":56,"componentType":5126,"count":8,"max":[0.0,1.0,0.0],"min":[-1.0,0.0,0.0],"type":"VEC3"},{"bufferView":57,"componentType":5125,"count":234,"max":[103.0],"min":[0.0],"type":"SCALAR"},{"bufferView":58,"componentType":5126,"count":104,"max":[1.4173228740692139,1.4566929340362549,10.236220359802246],"min":[0.0,0.03937007859349251,0.0],"type":"VEC3"},{"bufferView":59,"componentType":5126,"count":104,"max":[1.0,1.0,1.0],"min":[-1.0,-1.0,-1.0],"type":"VEC3"},{"bufferView":60,"componentType":5125,"count":840,"max":[527.0],"min":[0.0],"type":"SCALAR"},{"bufferView":61,"componentType":5126,"count":528,"max":[1.4590047597885132,0.8939388990402222,2.4408957958221437],"min":[0.610285222530365,0.0,0.31500959396362307],"type":"VEC3"},{"bufferView":62,"componentType":5126,"count":528,"max":[1.0,0.9993780255317688,0.9993780255317688],"min":[-0.9993780255317688,-1.0,-0.9993780255317688],"type":"VEC3"},{"bufferView":63,"componentType":5125,"count":972,"max":[449.0],"min":[0.0],"type":"SCALAR"},{"bufferView":64,"componentType":5126,"count":450,"max":[41.33858108520508,21.65354347229004,17.476224899291993],"min":[-1.9685039520263672,-1.9685039520263672,-0.5905511975288391],"type":"VEC3"},{"bufferView":65,"componentType":5126,"count":450,"max":[1.0,1.0,1.0],"min":[-1.0,-1.0,-1.0],"type":"VEC3"},{"bufferView":66,"componentType":5125,"count":957,"max":[566.0],"min":[0.0],"type":"SCALAR"},{"bufferView":67,"componentType":5126,"count":567,"max":[41.33858108520508,21.65354347229004,17.476224899291993],"min":[-1.9685039520263672,-1.9685039520263672,0.0],"type":"VEC3"},{"bufferView":68,"componentType":5126,"count":567,"max":[1.0,1.0,1.0],"min":[-1.0,-1.0,-1.0],"type":"VEC3"},{"bufferView":69,"componentType":5125,"count":2520,"max":[1583.0],"min":[0.0],"type":"SCALAR"},{"bufferView":70,"componentType":5126,"count":1584,"max":[37.482627868652347,17.79527473449707,5.5905022621154789],"min":[1.8874520063400269,1.8503936529159547,3.464615821838379],"type":"VEC3"},{"bufferView":71,"componentType":5126,"count":1584,"max":[1.0,1.0,0.9993780255317688],"min":[-1.0,-1.0,-0.9993780255317688],"type":"VEC3"},{"bufferView":72,"componentType":5125,"count":12,"max":[7.0],"min":[0.0],"type":"SCALAR"},{"bufferView":73,"componentType":5126,"count":8,"max":[37.401573181152347,17.677165985107423,11.570712089538575],"min":[-1.9685039520263672,-1.9685039520263672,3.149606227874756],"type":"VEC3"},{"bufferView":74,"componentType":5126,"count":8,"max":[0.9999993443489075,0.0,0.0],"min":[-1.0,-0.0011560686398297549,-3.17904359778754e-31],"type":"VEC3"}],"asset":{"generator":"SimLab GLTF","version":"2.0"},"bufferViews":[{"buffer":0,"byteLength":1680,"target":34963},{"buffer":0,"byteLength":3168,"byteOffset":1680,"byteStride":12,"target":34962},{"buffer":0,"byteLength":3168,"byteOffset":4848,"byteStride":12,"target":34962},{"buffer":0,"byteLength":48,"byteOffset":8016,"target":34963},{"buffer":0,"byteLength":96,"byteOffset":8064,"byteStride":12,"target":34962},{"buffer":0,"byteLength":96,"byteOffset":8160,"byteStride":12,"target":34962},{"buffer":0,"byteLength":864,"byteOffset":8256,"target":34963},{"buffer":0,"byteLength":984,"byteOffset":9120,"byteStride":12,"target":34962},{"buffer":0,"byteLength":984,"byteOffset":10104,"byteStride":12,"target":34962},{"buffer":0,"byteLength":1680,"byteOffset":11088,"target":34963},{"buffer":0,"byteLength":3168,"byteOffset":12768,"byteStride":12,"target":34962},{"buffer":0,"byteLength":3168,"byteOffset":15936,"byteStride":12,"target":34962},{"buffer":0,"byteLength":48,"byteOffset":19104,"target":34963},{"buffer":0,"byteLength":96,"byteOffset":19152,"byteStride":12,"target":34962},{"buffer":0,"byteLength":96,"byteOffset":19248,"byteStride":12,"target":34962},{"buffer":0,"byteLength":864,"byteOffset":19344,"target":34963},{"buffer":0,"byteLength":984,"byteOffset":20208,"byteStride":12,"target":34962},{"buffer":0,"byteLength":984,"byteOffset":21192,"byteStride":12,"target":34962},{"buffer":0,"byteLength":1680,"byteOffset":22176,"target":34963},{"buffer":0,"byteLength":3168,"byteOffset":23856,"byteStride":12,"target":34962},{"buffer":0,"byteLength":3168,"byteOffset":27024,"byteStride":12,"target":34962},{"buffer":0,"byteLength":48,"byteOffset":30192,"target":34963},{"buffer":0,"byteLength":96,"byteOffset":30240,"byteStride":12,"target":34962},{"buffer":0,"byteLength":96,"byteOffset":30336,"byteStride":12,"target":34962},{"buffer":0,"byteLength":864,"byteOffset":30432,"target":34963},{"buffer":0,"byteLength":984,"byteOffset":31296,"byteStride":12,"target":34962},{"buffer":0,"byteLength":984,"byteOffset":32280,"byteStride":12,"target":34962},{"buffer":0,"byteLength":1680,"byteOffset":33264,"target":34963},{"buffer":0,"byteLength":3168,"byteOffset":34944,"byteStride":12,"target":34962},{"buffer":0,"byteLength":3168,"byteOffset":38112,"byteStride":12,"target":34962},{"buffer":0,"byteLength":48,"byteOffset":41280,"target":34963},{"buffer":0,"byteLength":96,"byteOffset":41328,"byteStride":12,"target":34962},{"buffer":0,"byteLength":96,"byteOffset":41424,"byteStride":12,"target":34962},{"buffer":0,"byteLength":864,"byteOffset":41520,"target":34963},{"buffer":0,"byteLength":984,"byteOffset":42384,"byteStride":12,"target":34962},{"buffer":0,"byteLength":984,"byteOffset":43368,"byteStride":12,"target":34962},{"buffer":0,"byteLength":1680,"byteOffset":44352,"target":34963},{"buffer":0,"byteLength":3168,"byteOffset":46032,"byteStride":12,"target":34962},{"buffer":0,"byteLength":3168,"byteOffset":49200,"byteStride":12,"target":34962},{"buffer":0,"byteLength":48,"byteOffset":52368,"target":34963},{"buffer":0,"byteLength":96,"byteOffset":52416,"byteStride":12,"target":34962},{"buffer":0,"byteLength":96,"byteOffset":52512,"byteStride":12,"target":34962},{"buffer":0,"byteLength":864,"byteOffset":52608,"target":34963},{"buffer":0,"byteLength":984,"byteOffset":53472,"byteStride":12,"target":34962},{"buffer":0,"byteLength":984,"byteOffset":54456,"byteStride":12,"target":34962},{"buffer":0,"byteLength":1680,"byteOffset":55440,"target":34963},{"buffer":0,"byteLength":3168,"byteOffset":57120,"byteStride":12,"target":34962},{"buffer":0,"byteLength":3168,"byteOffset":60288,"byteStride":12,"target":34962},{"buffer":0,"byteLength":48,"byteOffset":63456,"target":34963},{"buffer":0,"byteLength":96,"byteOffset":63504,"byteStride":12,"target":34962},{"buffer":0,"byteLength":96,"byteOffset":63600,"byteStride":12,"target":34962},{"buffer":0,"byteLength":864,"byteOffset":63696,"target":34963},{"buffer":0,"byteLength":984,"byteOffset":64560,"byteStride":12,"target":34962},{"buffer":0,"byteLength":984,"byteOffset":65544,"byteStride":12,"target":34962},{"buffer":0,"byteLength":48,"byteOffset":66528,"target":34963},{"buffer":0,"byteLength":96,"byteOffset":66576,"byteStride":12,"target":34962},{"buffer":0,"byteLength":96,"byteOffset":66672,"byteStride":12,"target":34962},{"buffer":0,"byteLength":936,"byteOffset":66768,"target":34963},{"buffer":0,"byteLength":1248,"byteOffset":67704,"byteStride":12,"target":34962},{"buffer":0,"byteLength":1248,"byteOffset":68952,"byteStride":12,"target":34962},{"buffer":0,"byteLength":3360,"byteOffset":70200,"target":34963},{"buffer":0,"byteLength":6336,"byteOffset":73560,"byteStride":12,"target":34962},{"buffer":0,"byteLength":6336,"byteOffset":79896,"byteStride":12,"target":34962},{"buffer":0,"byteLength":3888,"byteOffset":86232,"target":34963},{"buffer":0,"byteLength":5400,"byteOffset":90120,"byteStride":12,"target":34962},{"buffer":0,"byteLength":5400,"byteOffset":95520,"byteStride":12,"target":34962},{"buffer":0,"byteLength":3828,"byteOffset":100920,"target":34963},{"buffer":0,"byteLength":6804,"byteOffset":104748,"byteStride":12,"target":34962},{"buffer":0,"byteLength":6804,"byteOffset":111552,"byteStride":12,"target":34962},{"buffer":0,"byteLength":10080,"byteOffset":118356,"target":34963},{"buffer":0,"byteLength":19008,"byteOffset":128436,"byteStride":12,"target":34962},{"buffer":0,"byteLength":19008,"byteOffset":147444,"byteStride":12,"target":34962},{"buffer":0,"byteLength":48,"byteOffset":166452,"target":34963},{"buffer":0,"byteLength":96,"byteOffset":166500,"byteStride":12,"target":34962},{"buffer":0,"byteLength":96,"byteOffset":166596,"byteStride":12,"target":34962}],"buffers":[{"byteLength":166692,"uri":"model.bin"}],"extensionsUsed":["KHR_materials_pbrSpecularGlossiness"],"materials":[{"extensions":{"KHR_materials_pbrSpecularGlossiness":{"diffuseFactor":[0.4000000059604645,0.0,0.0,1.0],"specularFactor":[0.20000000298023225,0.0,0.0],"glossinessFactor":0.5}},"name":"[Color A08]","alphaMode":"MASK","doubleSided":true,"pbrMetallicRoughness":{"baseColorFactor":[0.4000000059604645,0.0,0.0,1.0],"metallicFactor":0.10000000149011612,"roughnessFactor":0.5}},{"extensions":{"KHR_materials_pbrSpecularGlossiness":{"diffuseFactor":[0.4470588266849518,0.4470588266849518,0.4470588266849518,1.0],"specularFactor":[0.2235294133424759,0.2235294133424759,0.2235294133424759],"glossinessFactor":0.5}},"name":"[Color M05]","alphaMode":"MASK","doubleSided":true,"pbrMetallicRoughness":{"baseColorFactor":[0.4470588266849518,0.4470588266849518,0.4470588266849518,1.0],"metallicFactor":0.10000000149011612,"roughnessFactor":0.5}},{"extensions":{"KHR_materials_pbrSpecularGlossiness":{"diffuseFactor":[0.886274516582489,0.886274516582489,0.886274516582489,1.0],"specularFactor":[0.4431372582912445,0.4431372582912445,0.4431372582912445],"glossinessFactor":0.5}},"name":"[Color M01]","alphaMode":"MASK","doubleSided":true,"pbrMetallicRoughness":{"baseColorFactor":[0.886274516582489,0.886274516582489,0.886274516582489,1.0],"metallicFactor":0.10000000149011612,"roughnessFactor":0.5}},{"extensions":{"KHR_materials_pbrSpecularGlossiness":{"diffuseFactor":[0.7764706015586853,0.7764706015586853,0.7764706015586853,1.0],"specularFactor":[0.38823530077934267,0.38823530077934267,0.38823530077934267],"glossinessFactor":0.5}},"name":"[Color M02]","alphaMode":"MASK","doubleSided":true,"pbrMetallicRoughness":{"baseColorFactor":[0.7764706015586853,0.7764706015586853,0.7764706015586853,1.0],"metallicFactor":0.10000000149011612,"roughnessFactor":0.5}},{"extensions":{"KHR_materials_pbrSpecularGlossiness":{"diffuseFactor":[1.0,0.6980392336845398,0.6000000238418579,1.0],"specularFactor":[0.5,0.3490196168422699,0.30000001192092898],"glossinessFactor":0.5}},"name":"[Color B02]","alphaMode":"MASK","doubleSided":true,"pbrMetallicRoughness":{"baseColorFactor":[1.0,0.6980392336845398,0.6000000238418579,1.0],"metallicFactor":0.10000000149011612,"roughnessFactor":0.5}}],"meshes":[{"primitives":[{"attributes":{"NORMAL":2,"POSITION":1},"indices":0,"material":0,"mode":4}]},{"primitives":[{"attributes":{"NORMAL":5,"POSITION":4},"indices":3,"material":1,"mode":4}]},{"primitives":[{"attributes":{"NORMAL":8,"POSITION":7},"indices":6,"material":2,"mode":4}]},{"primitives":[{"attributes":{"NORMAL":11,"POSITION":10},"indices":9,"material":0,"mode":4}]},{"primitives":[{"attributes":{"NORMAL":14,"POSITION":13},"indices":12,"material":1,"mode":4}]},{"primitives":[{"attributes":{"NORMAL":17,"POSITION":16},"indices":15,"material":2,"mode":4}]},{"primitives":[{"attributes":{"NORMAL":20,"POSITION":19},"indices":18,"material":0,"mode":4}]},{"primitives":[{"attributes":{"NORMAL":23,"POSITION":22},"indices":21,"material":1,"mode":4}]},{"primitives":[{"attributes":{"NORMAL":26,"POSITION":25},"indices":24,"material":2,"mode":4}]},{"primitives":[{"attributes":{"NORMAL":29,"POSITION":28},"indices":27,"material":0,"mode":4}]},{"primitives":[{"attributes":{"NORMAL":32,"POSITION":31},"indices":30,"material":1,"mode":4}]},{"primitives":[{"attributes":{"NORMAL":35,"POSITION":34},"indices":33,"material":2,"mode":4}]},{"primitives":[{"attributes":{"NORMAL":38,"POSITION":37},"indices":36,"material":0,"mode":4}]},{"primitives":[{"attributes":{"NORMAL":41,"POSITION":40},"indices":39,"material":1,"mode":4}]},{"primitives":[{"attributes":{"NORMAL":44,"POSITION":43},"indices":42,"material":2,"mode":4}]},{"primitives":[{"attributes":{"NORMAL":47,"POSITION":46},"indices":45,"material":0,"mode":4}]},{"primitives":[{"attributes":{"NORMAL":50,"POSITION":49},"indices":48,"material":1,"mode":4}]},{"primitives":[{"attributes":{"NORMAL":53,"POSITION":52},"indices":51,"material":2,"mode":4}]},{"primitives":[{"attributes":{"NORMAL":56,"POSITION":55},"indices":54,"material":1,"mode":4}]},{"primitives":[{"attributes":{"NORMAL":59,"POSITION":58},"indices":57,"material":3,"mode":4}]},{"primitives":[{"attributes":{"NORMAL":62,"POSITION":61},"indices":60,"material":0,"mode":4}]},{"primitives":[{"attributes":{"NORMAL":65,"POSITION":64},"indices":63,"material":2,"mode":4}]},{"primitives":[{"attributes":{"NORMAL":68,"POSITION":67},"indices":66,"material":1,"mode":4}]},{"primitives":[{"attributes":{"NORMAL":71,"POSITION":70},"indices":69,"material":0,"mode":4}]},{"primitives":[{"attributes":{"NORMAL":74,"POSITION":73},"indices":72,"material":4,"mode":4}]}],"nodes":[{"children":[1,2],"matrix":[1.0,0.0,0.0,0.0,0.0,4.4896593387466768e-11,-1.0,0.0,0.0,1.0,4.4896593387466768e-11,0.0,0.0,0.0,0.0,1.0]},{"name":"Camera-2","rotation":[-0.7071067690849304,0.0,0.0,-0.7071067690849304],"translation":[0.4999999701976776,-4.149999618530273,0.21444804966449738]},{"name":"Assembly-8","children":[3,7,11,15,19,23,27,31,32,33,34],"rotation":[0.0,0.0,0.0,-1.0],"scale":[0.0010000000474974514,0.0010000000474974514,0.0010000000474974514]},{"children":[4,5,6],"rotation":[0.0,0.0,0.0,-1.0],"scale":[25.399999618530275,25.399999618530275,25.399999618530275],"translation":[632.5,46.66666793823242,80.0]},{"name":"Geom3D","mesh":0,"rotation":[0.0,0.0,0.0,-1.0]},{"name":"Geom3D","mesh":1,"rotation":[0.0,0.0,0.0,-1.0]},{"name":"Geom3D_","mesh":2,"rotation":[0.0,0.0,0.0,-1.0]},{"children":[8,9,10],"rotation":[0.0,0.0,0.0,-1.0],"scale":[25.399999618530275,25.399999618530275,25.399999618530275],"translation":[332.5,46.33333206176758,80.0]},{"name":"Geom3D","mesh":3,"rotation":[0.0,0.0,0.0,-1.0]},{"name":"Geom3D","mesh":4,"rotation":[0.0,0.0,0.0,-1.0]},{"name":"Geom3D_","mesh":5,"rotation":[0.0,0.0,0.0,-1.0]},{"children":[12,13,14],"rotation":[0.0,1.0,0.0,-0.0],"scale":[-25.399999618530275,-25.399999618530275,-25.399999618530275],"translation":[332.5,452.6666564941406,80.0]},{"name":"Geom3D","mesh":6,"rotation":[0.0,0.0,0.0,-1.0]},{"name":"Geom3D","mesh":7,"rotation":[0.0,0.0,0.0,-1.0]},{"name":"Geom3D_","mesh":8,"rotation":[0.0,0.0,0.0,-1.0]},{"children":[16,17,18],"rotation":[0.0,1.0,0.0,-0.0],"scale":[-25.399999618530275,-25.399999618530275,-25.399999618530275],"translation":[632.5,452.3333435058594,80.0]},{"name":"Geom3D","mesh":9,"rotation":[0.0,0.0,0.0,-1.0]},{"name":"Geom3D","mesh":10,"rotation":[0.0,0.0,0.0,-1.0]},{"name":"Geom3D_","mesh":11,"rotation":[0.0,0.0,0.0,-1.0]},{"children":[20,21,22],"rotation":[0.0,0.0,0.7071067690849304,-0.7071067690849304],"scale":[25.399999618530275,25.399999618530275,25.399999618530275],"translation":[48.0,267.5,80.0]},{"name":"Geom3D","mesh":12,"rotation":[0.0,0.0,0.0,-1.0]},{"name":"Geom3D","mesh":13,"rotation":[0.0,0.0,0.0,-1.0]},{"name":"Geom3D_","mesh":14,"rotation":[0.0,0.0,0.0,-1.0]},{"children":[24,25,26],"rotation":[0.0,0.0,-0.7071067690849304,-0.7071067690849304],"scale":[25.399999618530275,25.399999618530275,25.399999618530275],"translation":[952.0,232.5,80.0]},{"name":"Geom3D","mesh":15,"rotation":[0.0,0.0,0.0,-1.0]},{"name":"Geom3D","mesh":16,"rotation":[0.0,0.0,0.0,-1.0]},{"name":"Geom3D_","mesh":17,"rotation":[0.0,0.0,0.0,-1.0]},{"children":[28,29,30],"rotation":[0.0,0.0,-0.7071067690849304,-0.7071067690849304],"scale":[25.399999618530275,25.399999618530275,25.399999618530275],"translation":[952.0,414.5,80.0]},{"name":"Geom3D","mesh":18,"rotation":[0.0,0.0,0.0,-1.0]},{"name":"Geom3D","mesh":19,"rotation":[0.0,0.0,0.0,-1.0]},{"name":"Geom3D","mesh":20,"rotation":[0.0,0.0,0.0,-1.0]},{"name":"Geom3D","mesh":21,"rotation":[0.0,0.0,0.0,-1.0],"scale":[25.399999618530275,25.399999618530275,25.399999618530275]},{"name":"Geom3D","mesh":22,"rotation":[0.0,0.0,0.0,-1.0],"scale":[25.399999618530275,25.399999618530275,25.399999618530275]},{"name":"Geom3D","mesh":23,"rotation":[0.0,0.0,0.0,-1.0],"scale":[25.399999618530275,25.399999618530275,25.399999618530275]},{"name":"Geom3D","mesh":24,"rotation":[0.0,0.0,0.0,-1.0],"scale":[25.399999618530275,25.399999618530275,25.399999618530275]}],"scene":0,"scenes":[{"nodes":[0]}]}