{"accessors":[{"bufferView":0,"componentType":5125,"count":1542,"max":[771.0],"min":[0.0],"type":"SCALAR"},{"bufferView":1,"componentType":5126,"count":772,"max":[1.9685039520263672,157.48031616210938,160.23622131347657],"min":[0.0,0.0,0.0],"type":"VEC3"},{"bufferView":2,"componentType":5126,"count":772,"max":[1.0,1.0,0.0],"min":[-1.0,-1.0,-0.7808688282966614],"type":"VEC3"},{"bufferView":3,"componentType":5125,"count":162,"max":[85.0],"min":[0.0],"type":"SCALAR"},{"bufferView":4,"componentType":5126,"count":86,"max":[1.9685039520263672,157.48031616210938,162.20472717285157],"min":[0.0,0.0,34.25196838378906],"type":"VEC3"},{"bufferView":5,"componentType":5126,"count":86,"max":[1.0,1.0,0.7808688282966614],"min":[-1.0,-1.0,0.0],"type":"VEC3"},{"bufferView":6,"componentType":5126,"count":86,"max":[15.748031616210938,-1.2633466720581055],"min":[-15.748031616210938,-21.29804039001465],"type":"VEC2"},{"bufferView":7,"componentType":5125,"count":1542,"max":[771.0],"min":[0.0],"type":"SCALAR"},{"bufferView":8,"componentType":5126,"count":772,"max":[1.9685039520263672,157.48031616210938,160.23622131347657],"min":[7.105427357601002e-15,0.0,0.0],"type":"VEC3"},{"bufferView":9,"componentType":5126,"count":772,"max":[1.0,1.0,0.0],"min":[-1.0,-1.0,-0.7808688282966614],"type":"VEC3"},{"bufferView":10,"componentType":5125,"count":162,"max":[85.0],"min":[0.0],"type":"SCALAR"},{"bufferView":11,"componentType":5126,"count":86,"max":[1.9685039520263672,157.48031616210938,162.20472717285157],"min":[0.0,0.0,34.25196838378906],"type":"VEC3"},{"bufferView":12,"componentType":5126,"count":86,"max":[1.0,1.0,0.7808688282966614],"min":[-1.0,-1.0,-4.8127425269605797e-15],"type":"VEC3"},{"bufferView":13,"componentType":5126,"count":86,"max":[15.748031616210938,-1.2633466720581055],"min":[-15.748031616210938,-21.29804039001465],"type":"VEC2"},{"bufferView":14,"componentType":5125,"count":4020,"max":[1755.0],"min":[0.0],"type":"SCALAR"},{"bufferView":15,"componentType":5126,"count":1756,"max":[39.370079040527347,153.54330444335938,125.9842529296875],"min":[-7.815970093361102e-14,-7.874015808105469,-7.874015808105469],"type":"VEC3"},{"bufferView":16,"componentType":5126,"count":1756,"max":[1.0,1.0,1.0],"min":[-1.0,-1.0,-1.0],"type":"VEC3"},{"bufferView":17,"componentType":5125,"count":2988,"max":[1603.0],"min":[0.0],"type":"SCALAR"},{"bufferView":18,"componentType":5126,"count":1604,"max":[37.401573181152347,149.60629272460938,118.35079956054688],"min":[1.9685039520263672,-9.842519760131836,-2.209066152572632],"type":"VEC3"},{"bufferView":19,"componentType":5126,"count":1604,"max":[1.0,1.0,1.0],"min":[-1.0,-1.0,-1.0],"type":"VEC3"},{"bufferView":20,"componentType":5126,"count":1604,"max":[14.763779640197754,1.0],"min":[-14.763779640197754,-17.56869125366211],"type":"VEC2"},{"bufferView":21,"componentType":5125,"count":6,"max":[3.0],"min":[0.0],"type":"SCALAR"},{"bufferView":22,"componentType":5126,"count":4,"max":[39.370079040527347,147.63780212402345,116.14173126220703],"min":[37.401573181152347,147.63780212402345,112.20472717285156],"type":"VEC3"},{"bufferView":23,"componentType":5126,"count":4,"max":[0.0,-1.0,0.0],"min":[0.0,-1.0,0.0],"type":"VEC3"}],"asset":{"generator":"SimLab GLTF","version":"2.0"},"bufferViews":[{"buffer":0,"byteLength":6168,"target":34963},{"buffer":0,"byteLength":9264,"byteOffset":6168,"byteStride":12,"target":34962},{"buffer":0,"byteLength":9264,"byteOffset":15432,"byteStride":12,"target":34962},{"buffer":0,"byteLength":648,"byteOffset":24696,"target":34963},{"buffer":0,"byteLength":1032,"byteOffset":25344,"byteStride":12,"target":34962},{"buffer":0,"byteLength":1032,"byteOffset":26376,"byteStride":12,"target":34962},{"buffer":0,"byteLength":688,"byteOffset":27408,"byteStride":8,"target":34962},{"buffer":0,"byteLength":6168,"byteOffset":28096,"target":34963},{"buffer":0,"byteLength":9264,"byteOffset":34264,"byteStride":12,"target":34962},{"buffer":0,"byteLength":9264,"byteOffset":43528,"byteStride":12,"target":34962},{"buffer":0,"byteLength":648,"byteOffset":52792,"target":34963},{"buffer":0,"byteLength":1032,"byteOffset":53440,"byteStride":12,"target":34962},{"buffer":0,"byteLength":1032,"byteOffset":54472,"byteStride":12,"target":34962},{"buffer":0,"byteLength":688,"byteOffset":55504,"byteStride":8,"target":34962},{"buffer":0,"byteLength":16080,"byteOffset":56192,"target":34963},{"buffer":0,"byteLength":21072,"byteOffset":72272,"byteStride":12,"target":34962},{"buffer":0,"byteLength":21072,"byteOffset":93344,"byteStride":12,"target":34962},{"buffer":0,"byteLength":11952,"byteOffset":114416,"target":34963},{"buffer":0,"byteLength":19248,"byteOffset":126368,"byteStride":12,"target":34962},{"buffer":0,"byteLength":19248,"byteOffset":145616,"byteStride":12,"target":34962},{"buffer":0,"byteLength":12832,"byteOffset":164864,"byteStride":8,"target":34962},{"buffer":0,"byteLength":24,"byteOffset":177696,"target":34963},{"buffer":0,"byteLength":48,"byteOffset":177720,"byteStride":12,"target":34962},{"buffer":0,"byteLength":48,"byteOffset":177768,"byteStride":12,"target":34962}],"buffers":[{"byteLength":177816,"uri":"model.bin"}],"extensionsUsed":["KHR_materials_pbrSpecularGlossiness"],"images":[{"mimeType":"image/jpeg","uri":"Textures/Laminate_A01_Diff.jpg"}],"materials":[{"extensions":{"KHR_materials_pbrSpecularGlossiness":{"diffuseFactor":[0.3921568691730499,0.3764705955982208,0.37254902720451357,1.0],"specularFactor":[0.19607843458652497,0.1882352977991104,0.18627451360225678],"glossinessFactor":0.5}},"name":"Metallic_Paint_Silver","alphaMode":"MASK","doubleSided":true,"pbrMetallicRoughness":{"baseColorFactor":[0.3921568691730499,0.3764705955982208,0.37254902720451357,1.0],"metallicFactor":0.10000000149011612,"roughnessFactor":0.5}},{"extensions":{"KHR_materials_pbrSpecularGlossiness":{"diffuseFactor":[1.0,1.0,1.0,1.0],"diffuseTexture":{"index":0},"specularFactor":[0.5,0.5,0.5],"glossinessFactor":0.5}},"name":"Veneer_A01_120cm","alphaMode":"MASK","doubleSided":true,"pbrMetallicRoughness":{"baseColorTexture":{"index":0},"metallicFactor":0.10000000149011612,"roughnessFactor":0.5}},{"extensions":{"KHR_materials_pbrSpecularGlossiness":{"diffuseFactor":[0.8999999761581421,0.8999999761581421,0.8999999761581421,1.0],"specularFactor":[0.25,0.25,0.25],"glossinessFactor":0.5}},"name":"DefaultMaterial~1","alphaMode":"MASK","doubleSided":true,"pbrMetallicRoughness":{"baseColorFactor":[0.8999999761581421,0.8999999761581421,0.8999999761581421,1.0],"metallicFactor":0.5,"roughnessFactor":0.5}}],"meshes":[{"primitives":[{"attributes":{"NORMAL":2,"POSITION":1},"indices":0,"material":0,"mode":4}]},{"primitives":[{"attributes":{"NORMAL":5,"POSITION":4,"TEXCOORD_0":6},"indices":3,"material":1,"mode":4}]},{"primitives":[{"attributes":{"NORMAL":9,"POSITION":8},"indices":7,"material":0,"mode":4}]},{"primitives":[{"attributes":{"NORMAL":12,"POSITION":11,"TEXCOORD_0":13},"indices":10,"material":1,"mode":4}]},{"primitives":[{"attributes":{"NORMAL":16,"POSITION":15},"indices":14,"material":0,"mode":4}]},{"primitives":[{"attributes":{"NORMAL":19,"POSITION":18,"TEXCOORD_0":20},"indices":17,"material":1,"mode":4}]},{"primitives":[{"attributes":{"NORMAL":23,"POSITION":22},"indices":21,"material":2,"mode":4}]}],"nodes":[{"children":[1,2],"matrix":[1.0,0.0,0.0,0.0,0.0,4.4896593387466768e-11,-1.0,0.0,0.0,1.0,4.4896593387466768e-11,0.0,0.0,0.0,0.0,1.0]},{"name":"Camera-2","rotation":[-0.7071067690849304,0.0,0.0,-0.7071067690849304],"translation":[0.5,-15.575000762939454,2.200000047683716]},{"name":"Assembly-4","children":[3,6,9],"rotation":[0.0,0.0,0.0,-1.0],"scale":[0.0010000000474974514,0.0010000000474974514,0.0010000000474974514]},{"name":"Объединение","children":[4,5],"rotation":[0.0,0.0,0.0,-1.0],"scale":[25.399999618530275,25.399999618530275,25.399999618530275],"translation":[950.0,0.0,280.0]},{"name":"Geom3D","mesh":0,"rotation":[0.0,0.0,0.0,-1.0]},{"name":"Geom3D","mesh":1,"rotation":[0.0,0.0,0.0,-1.0]},{"name":"Объединение","children":[7,8],"rotation":[0.0,0.0,0.0,-1.0],"scale":[25.399999618530275,25.399999618530275,25.399999618530275],"translation":[-1.8047785217256002e-13,0.0,280.0]},{"name":"Geom3D","mesh":2,"rotation":[0.0,0.0,0.0,-1.0]},{"name":"Geom3D","mesh":3,"rotation":[0.0,0.0,0.0,-1.0]},{"children":[10,11,12],"rotation":[0.0,0.0,0.0,-1.0],"scale":[25.399999618530275,25.399999618530275,25.399999618530275],"translation":[0.0,200.0,200.0]},{"name":"Geom3D","mesh":4,"rotation":[0.0,0.0,0.0,-1.0]},{"name":"Geom3D","mesh":5,"rotation":[0.0,0.0,0.0,-1.0]},{"name":"Geom3D_","mesh":6,"rotation":[0.0,0.0,0.0,-1.0]}],"scene":0,"scenes":[{"nodes":[0]}],"textures":[{"source":0}]}